<?xml version="1.0" encoding="utf-8"?>
<!-- Generator: Adobe Illustrator 24.0.1, SVG Export Plug-In . SVG Version: 6.00 Build 0)  -->
<svg version="1.1" id="Layer_1" xmlns="http://www.w3.org/2000/svg" xmlns:xlink="http://www.w3.org/1999/xlink" x="0px" y="0px"
	 viewBox="0 0 160.2 160.2" style="enable-background:new 0 0 160.2 160.2;" xml:space="preserve">
<style type="text/css">
	.st0{fill:#FFFFFF;}
</style>
<g id="Layer_2_1_">
	<rect width="160.2" height="160.2"/>
</g>
<g id="Layer_1_1_">
	<g>
		<path class="st0" d="M40.5,105.3c1.5,0,2.6-0.2,3.3-0.7c0.6-0.5,1-1.3,1-2.4V59.9c0-1.1-0.3-1.9-1-2.4c-0.6-0.5-1.8-0.7-3.3-0.7
			v-2.6h14.1l10.6,39.6l10-39.6H89v2.6c-1.6,0-2.8,0.2-3.3,0.7c-0.6,0.5-1,1.3-1,2.4v42.4c0,1.1,0.3,1.9,1,2.4
			c0.6,0.5,1.8,0.7,3.3,0.7v2.6H72.5v-2.6c1.5,0,2.6-0.2,3.3-0.7c0.6-0.5,1-1.3,1-2.4V61l-12,47h-3.3l-13.3-46v40.3
			c0,1.1,0.3,1.9,1,2.4c0.6,0.5,1.8,0.7,3.3,0.7v2.6h-12V105.3L40.5,105.3z"/>
		<path class="st0" d="M108.5,53.4c1.8,0,3.1-0.2,3.9-0.4c0.8-0.3,1.4-0.8,1.8-1.6h2.5l3.2,13l-2.5,0.6c-0.9-2.4-1.8-4.2-2.5-5.5
			c-0.8-1.3-1.6-2.1-2.4-2.5c-0.9-0.5-1.9-0.7-3.2-0.7c-1.9,0-3.5,0.7-4.9,2.2c-1.4,1.4-2,3.3-2,5.4v34.3c0,2.1,0.6,3.7,1.8,5.1
			s2.8,2,4.6,2c2.2,0,4.1-1,5.5-2.9c1.4-2,2.1-4.6,2.1-8v-1.1h3.1v0.1c0,5.3-1,9.1-2.9,11.6c-1.9,2.5-4.9,3.7-8.9,3.7
			c-4.1,0-7.4-1.4-9.8-4.1c-2.3-2.7-3.5-6.4-3.5-11.3V68.8c0-5,1.2-8.8,3.7-11.5C100.3,54.8,103.8,53.4,108.5,53.4z"/>
	</g>
	<path class="st0" d="M80.1,16.3c-35.3,0-63.8,28.6-63.8,63.8s28.6,63.8,63.8,63.8s63.8-28.6,63.8-63.8S115.4,16.3,80.1,16.3z
		 M80.1,138.5c-32.2,0-58.4-26.2-58.4-58.4s26.2-58.4,58.4-58.4s58.4,26.2,58.4,58.4S112.3,138.5,80.1,138.5z"/>
</g>
</svg>
