<?xml version="1.0" encoding="utf-8"?>
<!-- Generator: Adobe Illustrator 24.0.1, SVG Export Plug-In . SVG Version: 6.00 Build 0)  -->
<svg version="1.1" xmlns="http://www.w3.org/2000/svg" xmlns:xlink="http://www.w3.org/1999/xlink" x="0px" y="0px"
	 viewBox="0 0 160.2 160.2" style="enable-background:new 0 0 160.2 160.2;" xml:space="preserve">
<style type="text/css">
	.st0{fill:#FFFFFF;}
</style>
<g id="Layer_2">
	<rect width="160.2" height="160.2"/>
</g>
<g id="Layer_1">
	<g>
		<path class="st0" d="M30.4,111.8c1.9,0,3.3-0.3,4.1-0.9s1.3-1.6,1.3-3V54.7c0-1.4-0.4-2.4-1.3-3c-0.8-0.6-2.2-0.9-4.1-0.9v-3.3
			h17.7l13.3,49.7L74,47.5h17.3v3.3c-2,0-3.5,0.3-4.2,0.9c-0.8,0.6-1.2,1.6-1.2,3v53.2c0,1.4,0.4,2.4,1.3,3c0.8,0.6,2.2,0.9,4.1,0.9
			v3.3H70.6v-3.3c1.9,0,3.3-0.3,4.1-0.9s1.3-1.6,1.3-3V56.1l-15.1,59h-4.1L40.1,57.3v50.6c0,1.4,0.4,2.4,1.3,3
			c0.8,0.6,2.2,0.9,4.1,0.9v3.3H30.4V111.8L30.4,111.8z"/>
		<path class="st0" d="M115.8,46.6c2.3,0,3.9-0.2,4.9-0.5c1-0.4,1.7-1,2.2-2h3.1l4,16.3l-3.1,0.8c-1.1-3-2.2-5.3-3.2-6.9
			s-2-2.6-3-3.2c-1.1-0.6-2.4-0.9-4-0.9c-2.4,0-4.4,0.9-6.1,2.8c-1.7,1.8-2.5,4.1-2.5,6.8v43.1c0,2.6,0.8,4.7,2.3,6.4
			s3.5,2.5,5.8,2.5c2.8,0,5.1-1.2,6.9-3.7c1.7-2.5,2.6-5.8,2.6-10v-1.4h3.9v0.1c0,6.6-1.2,11.4-3.7,14.6c-2.4,3.2-6.2,4.7-11.2,4.7
			c-5.2,0-9.3-1.7-12.3-5.1c-2.9-3.4-4.4-8.1-4.4-14.2V65.9c0-6.3,1.5-11.1,4.6-14.4C105.5,48.3,109.9,46.6,115.8,46.6z"/>
	</g>
	<path class="st0" d="M80.1,0C35.8,0,0,35.9,0,80.1s35.9,80.1,80.1,80.1s80.1-35.9,80.1-80.1S124.4,0,80.1,0z M80.1,153.5
		c-40.5,0-73.4-32.9-73.4-73.4S39.6,6.7,80.1,6.7s73.4,32.9,73.4,73.4S120.6,153.5,80.1,153.5z"/>
</g>
</svg>
