<?xml version="1.0" encoding="utf-8"?>
<!-- Generator: Adobe Illustrator 24.0.1, SVG Export Plug-In . SVG Version: 6.00 Build 0)  -->
<svg version="1.1" id="Layer_1" xmlns="http://www.w3.org/2000/svg" xmlns:xlink="http://www.w3.org/1999/xlink" x="0px" y="0px"
	 viewBox="0 0 500 272.2" style="enable-background:new 0 0 500 272.2;" xml:space="preserve">
<style type="text/css">
	.st0{fill:#FFFFFF;}
</style>
<g>
	<path class="st0" d="M0,265.8c2.2,0,3.8-0.3,4.8-1c1-0.7,1.5-1.8,1.5-3.4v-61.1c0-1.6-0.5-2.7-1.5-3.4c-1-0.7-2.6-1-4.8-1v-4h20.4
		L35.6,249l14.5-57.1H70v3.8c-2.3,0-4,0.3-4.9,1c-0.9,0.7-1.3,1.8-1.3,3.5v61.1c0,1.6,0.5,2.7,1.5,3.4c1,0.7,2.6,1,4.8,1v3.8H46.2
		v-3.8c2.2,0,3.8-0.3,4.8-1c1-0.7,1.5-1.8,1.5-3.4v-59.4L35,269.6h-4.8L11,203.1v58.1c0,1.6,0.5,2.7,1.5,3.4c1,0.7,2.6,1,4.8,1v3.8
		H0V265.8z"/>
	<path class="st0" d="M75.6,265.8c2.2,0,3.8-0.3,4.8-1c1-0.7,1.5-1.8,1.5-3.4V222c0-1.6-0.5-2.7-1.5-3.4c-1-0.7-2.6-1-4.8-1v-3.8
		h23.8v3.8c-2.2,0-3.8,0.3-4.8,1c-1,0.7-1.5,1.8-1.5,3.4v39.4c0,1.6,0.5,2.7,1.5,3.4c1,0.7,2.6,1,4.8,1v3.8H75.6V265.8z"/>
	<path class="st0" d="M104.4,265.8c2.2,0,3.8-0.3,4.8-1c1-0.7,1.5-1.8,1.5-3.4V222c0-1.6-0.5-2.7-1.5-3.4c-1-0.7-2.6-1-4.8-1v-3.8
		h24.7c6.6,0,11.4,1.8,14.5,5.4c3.1,3.6,4.7,9.2,4.7,16.8v11.6c0,14.8-6.4,22.2-19.2,22.2h-24.7
		C104.4,269.8,104.4,265.8,104.4,265.8z M129.1,217.6h-6.8v47.9h6.8c2.3,0,4.2-0.9,5.6-2.7c1.4-1.8,2.1-4.3,2.1-7.3v-27.8
		c0-3-0.7-5.5-2.1-7.3C133.3,218.6,131.4,217.6,129.1,217.6z"/>
	<path class="st0" d="M154,265.8c2.2,0,3.8-0.3,4.8-1c1-0.7,1.5-1.8,1.5-3.4V222c0-1.6-0.5-2.7-1.5-3.4c-1-0.7-2.6-1-4.8-1v-3.8
		h24.7c6.6,0,11.4,1.8,14.5,5.4c3.1,3.6,4.7,9.2,4.7,16.8v11.6c0,14.8-6.4,22.2-19.2,22.2H154V265.8z M178.7,217.6h-6.8v47.9h6.8
		c2.3,0,4.2-0.9,5.6-2.7c1.4-1.8,2.1-4.3,2.1-7.3v-27.8c0-3-0.7-5.5-2.1-7.3C182.9,218.6,181,217.6,178.7,217.6z"/>
	<path class="st0" d="M203.6,265.8c2.2,0,3.8-0.3,4.8-1c1-0.7,1.5-1.8,1.5-3.4V222c0-1.6-0.5-2.7-1.5-3.4c-1-0.7-2.6-1-4.8-1v-3.8
		h23.8v3.8c-2.2,0-3.8,0.3-4.8,1c-1,0.7-1.5,1.8-1.5,3.4v43.6h6.5c3.1,0,5.5-0.4,7.1-1.1c1.7-0.7,2.9-2.1,3.7-4.1s1.5-4.9,1.9-8.7
		h3.4v20.1h-3.5c-0.3-0.8-0.9-1.4-2-1.7c-1-0.3-2.8-0.5-5.2-0.5h-29.6v-3.8H203.6z"/>
	<path class="st0" d="M248.1,265.8c2.2,0,3.8-0.3,4.8-1c1-0.7,1.5-1.8,1.5-3.4V222c0-1.6-0.5-2.7-1.5-3.4c-1-0.7-2.6-1-4.8-1v-3.8
		h30.7c1.8,0,3.1-0.2,3.8-0.5c0.8-0.3,1.2-0.8,1.2-1.5h3.4l4.2,16.8l-3.4,0.9c-1.2-3.3-2.4-5.8-3.6-7.5c-1.1-1.7-2.6-2.8-4.3-3.4
		c-1.8-0.6-4.2-0.8-7.2-0.8h-7.4v22.3h7.5c2.7,0,4-1.8,4-5.4h3.3v15.7H277c0-4.2-1.3-6.3-4-6.3h-7.5v21.5h10.8c3.1,0,5.5-0.3,7.2-1
		c1.7-0.7,2.9-2,3.7-4c0.8-2,1.4-4.9,1.8-8.6h3.4v19.9H289c-0.3-0.8-0.9-1.4-2-1.7c-1-0.3-2.8-0.5-5.2-0.5H248v-3.9H248.1z"/>
	<path class="st0" d="M339,190.9c2.6,0,4.5-0.2,5.6-0.6s1.9-1.2,2.5-2.3h3.5l4.6,18.7l-3.5,0.9c-1.3-3.5-2.5-6.1-3.6-7.9
		s-2.3-3-3.5-3.7c-1.2-0.7-2.7-1-4.6-1c-2.8,0-5.1,1.1-7,3.2s-2.8,4.7-2.8,7.8v49.5c0,3,0.9,5.4,2.6,7.4c1.8,1.9,4,2.9,6.7,2.9
		c3.2,0,5.9-1.4,7.9-4.3c2-2.9,3-6.7,3-11.4v-1.7h4.5v0.1c0,7.5-1.4,13.1-4.2,16.7c-2.8,3.6-7.1,5.4-12.9,5.4c-6,0-10.7-2-14.1-5.9
		s-5.1-9.4-5.1-16.3V213c0-7.3,1.7-12.8,5.2-16.5C327.2,192.8,332.3,190.9,339,190.9z"/>
	<path class="st0" d="M360.7,265.8c2.2,0,3.8-0.3,4.8-1c1-0.7,1.5-1.8,1.5-3.4V222c0-1.6-0.5-2.7-1.5-3.4c-1-0.7-2.6-1-4.8-1v-3.8
		h23.8v3.8c-2.2,0-3.8,0.3-4.8,1c-1,0.7-1.5,1.8-1.5,3.4v43.6h6.5c3.1,0,5.5-0.4,7.1-1.1c1.7-0.7,2.9-2.1,3.7-4.1
		c0.8-2,1.5-4.9,1.9-8.7h3.4v20.1h-3.5c-0.3-0.8-0.9-1.4-2-1.7c-1-0.3-2.8-0.5-5.2-0.5h-29.6v-3.8H360.7z"/>
	<path class="st0" d="M446.1,248.5c0,14.8-5.8,22.2-17.3,22.2c-5.9,0-10.6-2-14-5.9s-5.1-9.4-5.1-16.3V222c0-1.6-0.5-2.7-1.5-3.4
		c-1-0.7-2.6-1-4.8-1v-3.8h23.8v3.8c-2.2,0-3.8,0.3-4.8,1c-1,0.7-1.5,1.8-1.5,3.4v33.6c0,3.2,0.9,5.8,2.7,7.8c1.8,2,4.2,3,7.2,3
		c3.2,0,5.7-1.5,7.7-4.6c2-3,3-6.9,3-11.7V222c0-1.7-0.5-2.8-1.3-3.5c-0.9-0.7-2.5-1-4.9-1v-3.8h16.9v3.8c-2.3,0-4,0.3-4.9,1
		c-0.9,0.7-1.3,1.8-1.3,3.5L446.1,248.5L446.1,248.5z"/>
	<path class="st0" d="M455.7,265.8c2.2,0,3.8-0.3,4.8-1c1-0.7,1.5-1.8,1.5-3.4V222c0-1.6-0.5-2.7-1.5-3.4c-1-0.7-2.6-1-4.8-1v-3.8
		h22.9c5.7,0,10.2,1.2,13.5,3.7s4.9,5.9,4.9,10.2c0,3.2-0.5,5.8-1.5,7.6c-1,1.8-2.8,3.5-5.5,5.1c3.5,1.2,6,3,7.6,5.3
		c1.6,2.3,2.4,5.2,2.4,8.8c0,5.2-1.5,9-4.6,11.5s-7.8,3.7-14.2,3.7h-25.5L455.7,265.8L455.7,265.8z M478.7,217.6h-5.6v47.9h8.1
		c2.3,0,4.1-0.7,5.5-2.2s2.1-3.4,2.1-5.8v-6.3c0-2.6-0.7-4.6-2-6.1s-3.2-2.2-5.5-2.2h-3.9v-3.8h1.5c2.6,0,4.5-0.7,5.7-2.2
		s1.8-3.8,1.8-7v-4.2c0-2.5-0.7-4.4-2-5.9C482.9,218.4,481,217.6,478.7,217.6z"/>
</g>
<g>
	<path class="st0" d="M200.3,111.8c1.9,0,3.3-0.3,4.1-0.9s1.3-1.6,1.3-3V54.7c0-1.4-0.4-2.4-1.3-3c-0.8-0.6-2.2-0.9-4.1-0.9v-3.3
		H218l13.3,49.7l12.6-49.7h17.3v3.3c-2,0-3.5,0.3-4.2,0.9c-0.8,0.6-1.2,1.6-1.2,3v53.2c0,1.4,0.4,2.4,1.3,3c0.8,0.6,2.2,0.9,4.1,0.9
		v3.3h-20.7v-3.3c1.9,0,3.3-0.3,4.1-0.9s1.3-1.6,1.3-3V56.1l-15.1,59h-4.1L210,57.3v50.6c0,1.4,0.4,2.4,1.3,3
		c0.8,0.6,2.2,0.9,4.1,0.9v3.3h-15.1V111.8L200.3,111.8z"/>
	<path class="st0" d="M285.7,46.6c2.3,0,3.9-0.2,4.9-0.5c1-0.4,1.7-1,2.2-2h3.1l4,16.3l-3.1,0.8c-1.1-3-2.2-5.3-3.2-6.9
		s-2-2.6-3-3.2c-1.1-0.6-2.4-0.9-4-0.9c-2.4,0-4.4,0.9-6.1,2.8c-1.7,1.8-2.5,4.1-2.5,6.8v43.1c0,2.6,0.8,4.7,2.3,6.4
		s3.5,2.5,5.8,2.5c2.8,0,5.1-1.2,6.9-3.7c1.7-2.5,2.6-5.8,2.6-10v-1.4h3.9v0.1c0,6.6-1.2,11.4-3.7,14.6c-2.4,3.2-6.2,4.7-11.2,4.7
		c-5.2,0-9.3-1.7-12.3-5.1c-2.9-3.4-4.4-8.1-4.4-14.2V65.9c0-6.3,1.5-11.1,4.6-14.4C275.4,48.3,279.8,46.6,285.7,46.6z"/>
</g>
<path class="st0" d="M250,0c-44.3,0-80.1,35.9-80.1,80.1s35.9,80.1,80.1,80.1s80.1-35.9,80.1-80.1S294.3,0,250,0z M250,153.5
	c-40.5,0-73.4-32.9-73.4-73.4S209.5,6.7,250,6.7s73.4,32.9,73.4,73.4S290.5,153.5,250,153.5z"/>
</svg>
