<?xml version="1.0" encoding="utf-8"?>
<!-- Generator: Adobe Illustrator 24.0.1, SVG Export Plug-In . SVG Version: 6.00 Build 0)  -->
<svg version="1.1" id="Layer_1" xmlns="http://www.w3.org/2000/svg" xmlns:xlink="http://www.w3.org/1999/xlink" x="0px" y="0px"
	 viewBox="0 0 512 512" style="enable-background:new 0 0 512 512;" xml:space="preserve">
<path d="M437,286c-12.3,0-23.7,3.3-34,8.5l-20.3-24.1c9-5.3,18.7-9.4,29-11.7c8.4-1.9,16.7-2.6,25.3-2.7
	c11.2,0.1,22.2-4.3,30.4-12.5c8.6-8.5,13.5-20.3,13.5-34.3C481,132.4,416.3,76,347.9,76H331c-8.3,0-15,6.7-15,15s6.7,15,15,15h16.9
	c4.5,0,8.7,0.8,13.1,1.3v29c-8.7,0.8-16.9,3.5-24.7,7.1c-0.1-0.1-0.2-0.2-0.3-0.3c-12.3,5.8-22.9,14.8-30.6,26.3l-34.1,51.2
	c-2.3,3.5-6,5.9-10.2,6.5c-30.4,4.7-56.7,24-70.5,52.3c12.8,19.1,20.5,42,20.5,66.6h-31c0-49.6-40.4-90-90-90S0,296.4,0,346
	s40.4,90,90,90c39.1,0,72-25.2,84.5-60H316c8.3,0,15-6.7,15-15s1-16.8,2.9-25.3c4.1-17.5,13.2-33.5,25.4-46.5l20.2,24.1
	c-10.8,13-17.6,29.5-17.6,47.7c0,41.4,33.6,75,75,75s75-33.6,75-75S478.4,286,437,286z M90,406c-33.1,0-60-26.9-60-60s26.9-60,60-60
	s60,26.9,60,60h-45c-8.3,0-15-6.7-15-15s-6.7-15-15-15s-15,6.7-15,15c0,24.8,20.2,45,45,45h36.7C131.2,393.8,112.1,406,90,406z
	 M437,406c-24.8,0-45-20.2-45-45c0-8.7,2.6-16.7,6.9-23.6l26.4,33c5.2,6.5,14.7,7.5,21.1,2.3c6.5-5.2,7.5-14.6,2.3-21.1l-26.4-33
	c4.6-1.6,9.5-2.7,14.7-2.7c24.8,0,45,20.2,45,45S461.8,406,437,406z"/>
<path d="M254.7,191.3l25.7-38.6c8.2-12.3,19-22.3,31.2-30.1C295.2,112.2,276.2,106,256,106c-35.4,0-68.2,18.1-87.4,47l24,14.4
	C211.8,179,232.9,186.7,254.7,191.3z"/>
<path d="M177.1,193.2L80.8,136H15c-8.3,0-15,6.7-15,15c0,41.4,33.6,75,75,75c30,0,61.1,0.7,94.5,29.6c0.1-0.2,0.1-0.5,0.3-0.7
	c11.6-18.7,28.1-33.2,46.9-43.4C203,206.5,189.7,200.7,177.1,193.2z"/>
</svg>
