<?xml version="1.0" encoding="utf-8"?>
<!-- Generator: Adobe Illustrator 24.0.1, SVG Export Plug-In . SVG Version: 6.00 Build 0)  -->
<svg version="1.1" id="Capa_1" xmlns="http://www.w3.org/2000/svg" xmlns:xlink="http://www.w3.org/1999/xlink" x="0px" y="0px"
	 viewBox="0 0 310.1 310.1" style="enable-background:new 0 0 310.1 310.1;" xml:space="preserve">
<style type="text/css">
	.st0{fill:#5C5C5C;}
</style>
<path class="st0" d="M289.9,242.1c2.8-8.9-2.1-18.3-11-21.1c-39.6-12.4-56.4-83.3-60.3-109.4c-0.6-3.7-2.5-7.3-2.5-7.3
	c-7.3-13.8-34.8-20.3-37.9-20.7c-5.6-0.7-6.3-4.9-6.5-6.4c9.7-6.8,16.3-23.1,16.3-37.8C187.9,17.6,185.6,0,156,0c-0.4,0-1.9,0-2.3,0
	c-29.6,0-31.9,17.6-31.9,39.4c0,14.7,6.6,31,16.3,37.8c-0.2,1.4-1.2,5.8-6.5,6.4c-3.3,0.4-34.9,7.8-39.2,23.9c0,0-0.5,2.3-0.8,4.1
	c0,0.2-3.3,24.5-13.1,50.9C70,185.1,55.1,213.5,31.2,221c-8.9,2.8-13.8,12.2-11,21.1c2.2,7.1,8.8,11.7,15.9,11.8
	c-14.2,8.2-16.3,19.5-16.3,25.4c0,2.3,1.2,10,6.7,17c5,6.3,14.9,13.8,33.8,13.8c2.8,0,5.9-0.2,8.9-0.5c12.6-1.4,25.3-3.4,37.6-5.4
	c4.5-0.7,8.9-1.4,13.4-2.1c5.9-0.9,16.7-1.5,31.9-1.8h5.2c15.2,0.3,25.9,0.9,31.9,1.8c4.5,0.7,8.9,1.4,13.4,2.1
	c12.3,2,25,4,37.6,5.4c3.1,0.3,6.1,0.5,8.9,0.5c19,0,28.9-7.5,33.8-13.8c5.5-7,6.7-14.6,6.7-17c0-5.9-2.1-17.3-16.3-25.4
	c0.1,0,0.2,0,0.2,0C281,253.9,287.6,249.3,289.9,242.1z M93.2,239.9c-8.5,2.7-10.5,2.9-17.8,4c-2.4,0.3-5.3,0.8-9.2,1.3
	c-3.8,0.4-7.3,0.9-10.5,1.6c21.9-12.1,39.6-35.2,52.8-69c0.7,6.6,1.2,13.8,1.2,21.8C109.8,225.6,96.6,238.9,93.2,239.9z
	 M243.4,245.3c-3.9-0.6-6.8-1.1-9.2-1.3c-23-2.8-34.3-18.3-34.3-44.3c0-8.3,0.5-15.8,1.3-22.6c13.2,34.3,31.1,57.8,53.3,70
	C251.1,246.3,247.4,245.7,243.4,245.3z"/>
</svg>
